PathFileType	4	(X/Y/Z)	Walk3.trc
DataRate	CameraRate	NumFrames	NumMarkers	Units	OrigDataRate	OrigDataStartFrame	OrigNumFrames
200.000000	200.000000	4	61	mm	200.000000	299	395
Frame#	Times		LFHD		RFHD		CLAV		STRN		LASI		RASI		RACR1		RUA1		RFA1		RWRU		RCAR		LACR1		LUA1		LFA1		LWRU		LCAR		RTH3		RMFC		RTB1		RTB3		RTB4		RMT5		LTH1		LTH3		LTH2		LTH4		LLFC		LTB1		LTB2		LTB4		RTH2		RMT1		RTH4		RMMAL		RLFC		RTH1		RTB2		LBHD		RWRR		LElbow		LWRR		RLMAL		RToe		RCAL		RElbow		LPSI		RBHD		T10		RBack		RPSI		LTB3		LMFC		LLMAL		RElbowM		LElbowM		LCAL		LMT5		LToe		C7		LMT1		LMMAL
			X1	Y1	Z1	X2	Y2	Z2	X3	Y3	Z3	X4	Y4	Z4	X5	Y5	Z5	X6	Y6	Z6	X7	Y7	Z7	X8	Y8	Z8	X9	Y9	Z9	X10	Y10	Z10	X11	Y11	Z11	X12	Y12	Z12	X13	Y13	Z13	X14	Y14	Z14	X15	Y15	Z15	X16	Y16	Z16	X17	Y17	Z17	X18	Y18	Z18	X19	Y19	Z19	X20	Y20	Z20	X21	Y21	Z21	X22	Y22	Z22	X23	Y23	Z23	X24	Y24	Z24	X25	Y25	Z25	X26	Y26	Z26	X27	Y27	Z27	X28	Y28	Z28	X29	Y29	Z29	X30	Y30	Z30	X31	Y31	Z31	X32	Y32	Z32	X33	Y33	Z33	X34	Y34	Z34	X35	Y35	Z35	X36	Y36	Z36	X37	Y37	Z37	X38	Y38	Z38	X39	Y39	Z39	X40	Y40	Z40	X41	Y41	Z41	X42	Y42	Z42	X43	Y43	Z43	X44	Y44	Z44	X45	Y45	Z45	X46	Y46	Z46	X47	Y47	Z47	X48	Y48	Z48	X49	Y49	Z49	X50	Y50	Z50	X51	Y51	Z51	X52	Y52	Z52	X53	Y53	Z53	X54	Y54	Z54	X55	Y55	Z55	X56	Y56	Z56	X57	Y57	Z57	X58	Y58	Z58	X59	Y59	Z59	X60	Y60	Z60	X61	Y61	Z61

299	1.495	692.78	1581	-31.109	686.24	1585.9	68.221	649.22	1305.5	23.725	668.29	1170.1	31.172	626.56	898.77	-76.83	611.09	914.23	172.83	585.87	1352.9	187.13	586.51	1184.4	244.94	690.73	925.97	289.32	790.61	859.61	241.41	819.82	793.38	283.58	568.81	1350.9	-128.75	498.03	1189.4	-176.55	374.28	925.36	-194.05	373.26	798.43	-194.83	307.18	751.96	-202.16	467.53	593.01	197.42	387.74	458.89	36.504	402.37	342.78	130.99	334.02	185.41	103.18	369.32	263.01	118.85	329.81	26.655	118.64	611.31	732.99	-148.51	669.69	574.18	-115.26	690.99	677.78	-112.68	640.06	652.61	-133.7	723.41	452.71	-86.708	791.99	376.41	-22.318	796.58	285.24	-76.865	810.13	291.97	-17.361	546.24	661.36	194.68	368.24	31.981	35.138	493.85	670.3	219.15	268.24	119.02	28.535	416.75	449.87	165.47	521.96	749.3	243.12	321.85	278.07	155.79	552.65	1512.5	-59.247	749.6	822.57	281.68	421.25	1050.6	-172.16	316.06	823.92	-165.35	242.65	101.61	105.34	421.13	24.004	68.735	190.8	92.937	59.022	590.26	1017.5	281.02	448.02	953.52	-17.861	546.04	1525.8	82.781	459.54	1201.3	35.982	463.15	1289.5	105.59	444.53	955.48	82	833.41	210.64	-11.169	705.14	436.71	44.591	819.37	85.448	-51.967	555.55	1007.6	209.11	424.27	1036.5	-99.195	780.16	38.113	-5.8172	936.87	77.342	-58.54	1013.1	118.75	-12.818	540.82	1409.1	21.027	962.96	101.28	14.128	827.46	109.6	27.531
300	1.5	700.89	1580	-31.202	694.43	1584.9	68.134	657.85	1304.3	23.708	676.99	1169	31.233	635.81	897.53	-76.419	619.34	913.23	173.31	594.49	1351.8	187.13	595.22	1183.3	244.88	700.08	925.55	288.89	800.47	860.13	240.85	830.19	793.93	282.76	577.27	1349.7	-128.74	505.25	1188.9	-176.45	379.76	925.73	-193.68	377.74	798.78	-194.54	311.25	752.55	-201.16	474.17	592.7	197.6	394.27	458.74	36.711	406.86	342.55	131.38	336.49	186.02	103.64	372.8	263.22	119.26	330.02	26.761	118.75	620.93	732.03	-148.71	678.63	572.91	-115.5	700.03	676.51	-112.03	649.37	651.5	-134	732.1	451.44	-86.345	801.71	376.23	-21.932	807.78	285.01	-76.374	821.27	292.05	-16.89	553.29	660.63	195.16	368.3	31.9	35.144	500.92	669.87	219.41	269.71	120.52	29.099	422.54	449.62	165.75	529.29	748.81	243.26	325.48	278.91	156.15	560.88	1511.2	-59.186	759.72	822.61	280.92	427.78	1050.5	-171.82	320.86	824.69	-164.78	244.01	103.43	105.92	421.06	24.012	68.629	191.98	95.543	59.713	599	1016.4	280.88	457.06	952.43	-18.836	554.37	1524.5	82.838	468.16	1200.1	35.991	471.77	1288.3	105.67	453.19	954.16	81.04	845.9	211.04	-10.59	713.17	434.98	44.876	833.82	85.48	-51.156	564.13	1006.5	208.99	431.02	1036.3	-98.899	795.29	37.564	-4.8731	951.7	78.865	-57.581	1027.2	121.77	-11.807	549.34	1408	21.046	977.29	103.47	14.969	841.56	109.91	28.275
301	1.505	709	1579	-31.282	702.63	1583.9	68.059	666.5	1303.2	23.648	685.73	1167.9	31.241	645.08	896.29	-76.017	627.71	912.22	173.77	603.12	1350.7	187.1	603.9	1182.2	244.81	709.31	925.05	288.5	810.19	860.5	240.38	840.35	794.32	282.04	585.71	1348.6	-128.77	512.6	1188.4	-176.4	385.5	926.01	-193.43	382.54	799.03	-194.35	315.66	753.04	-200.33	481.06	592.32	197.77	401	458.52	36.969	411.56	342.25	131.79	339.11	186.63	104.14	376.44	263.39	119.7	330.26	26.867	118.87	630.63	731.13	-148.86	687.7	571.77	-115.58	709.17	675.36	-111.33	658.79	650.48	-134.2	740.86	450.22	-85.935	811.25	375.89	-21.501	818.48	284.62	-75.814	831.95	291.93	-16.356	560.55	659.86	195.57	368.33	31.815	35.157	508.21	669.37	219.65	271.28	122.06	29.74	428.58	449.3	166.05	536.84	748.27	243.35	329.3	279.74	156.55	569.11	1509.9	-59.144	769.65	822.52	280.22	434.5	1050.3	-171.58	325.95	825.36	-164.38	245.48	105.32	106.59	420.96	24.022	68.51	193.28	98.267	60.497	607.68	1015.4	280.72	466.15	951.38	-19.787	562.7	1523.3	82.878	476.82	1198.8	35.98	480.4	1287.1	105.71	461.95	952.87	80.112	857.65	211.21	-9.9317	721.31	433.4	45.199	847.14	85.368	-50.246	572.69	1005.4	208.84	437.92	1036	-98.694	809.15	37.021	-3.845	965.31	79.91	-56.543	1040.2	124.07	-10.739	557.86	1406.8	21.031	990.48	105.08	15.89	854.58	110.05	29.112
302	1.51	717.13	1578	-31.349	710.81	1582.9	67.998	675.17	1302.1	23.545	694.51	1166.8	31.195	654.36	895.06	-75.632	636.18	911.18	174.19	611.75	1349.6	187.03	612.56	1181.1	244.72	718.42	924.47	288.15	819.77	860.73	240.01	850.29	794.52	281.41	594.15	1347.4	-128.84	520.09	1187.8	-176.4	391.51	926.18	-193.3	387.66	799.2	-194.25	320.42	753.42	-199.67	488.19	591.87	197.95	407.94	458.24	37.28	416.48	341.88	132.22	341.86	187.24	104.69	380.27	263.53	120.19	330.51	26.974	119.01	640.39	730.31	-148.94	696.91	570.75	-115.5	718.41	674.34	-110.58	668.3	649.55	-134.27	749.71	449.06	-85.48	820.62	375.37	-21.026	828.69	284.06	-75.182	842.16	291.6	-15.755	568.02	659.05	195.94	368.34	31.728	35.177	515.72	668.81	219.86	272.96	123.65	30.46	434.89	448.89	166.37	544.58	747.67	243.41	333.35	280.56	157.01	577.36	1508.7	-59.125	779.39	822.31	279.57	441.4	1050	-171.44	331.31	825.92	-164.14	247.08	107.28	107.34	420.82	24.031	68.375	194.7	101.12	61.374	616.32	1014.2	280.54	475.28	950.37	-20.701	571.01	1522	82.898	485.52	1197.6	35.948	489.05	1285.9	105.71	470.81	951.62	79.227	868.66	211.12	-9.1905	729.56	431.98	45.558	859.3	85.072	-49.236	581.25	1004.3	208.66	444.99	1035.7	-98.581	821.73	36.447	-2.7338	977.71	80.428	-55.419	1052.1	125.59	-9.6031	566.37	1405.6	20.981	1002.5	106.08	16.904	866.54	109.97	30.044
